<?xml version="1.0" encoding="UTF-8" standalone="no"?>
<!DOCTYPE svg PUBLIC "-//W3C//DTD SVG 1.1//EN"
 "http://www.w3.org/Graphics/SVG/1.1/DTD/svg11.dtd">
<!-- Generated by graphviz version 2.38.0 (20140413.2041)
 -->
<!-- Title: G Pages: 1 -->
<svg width="145pt" height="407pt"
 viewBox="0.00 0.00 145.00 406.98" xmlns="http://www.w3.org/2000/svg" xmlns:xlink="http://www.w3.org/1999/xlink">
<g id="graph0" class="graph" transform="scale(1 1) rotate(0) translate(4.002 402.98)">
<title>G</title>
<polygon fill="white" stroke="none" points="-4.002,4.002 -4.002,-402.98 141,-402.98 141,4.002 -4.002,4.002"/>
<!-- n0 -->
<g id="node1" class="node"><title>n0</title>
<ellipse fill="none" stroke="black" cx="101.5" cy="-379.48" rx="19.5" ry="19.5"/>
<text text-anchor="middle" x="101.5" y="-375.78" font-family="Times New Roman,serif" font-size="14.00">n0</text>
</g>
<!-- n1 -->
<g id="node2" class="node"><title>n1</title>
<ellipse fill="none" stroke="black" cx="60.498" cy="-289.49" rx="19.5" ry="19.5"/>
<text text-anchor="middle" x="60.498" y="-285.79" font-family="Times New Roman,serif" font-size="14.00">n1</text>
</g>
<!-- n0&#45;&gt;n1 -->
<g id="edge1" class="edge"><title>n0&#45;&gt;n1</title>
<path fill="none" stroke="black" d="M93.3993,-361.701C87.5968,-348.966 79.6714,-331.571 73.0531,-317.046"/>
<polygon fill="black" stroke="black" points="76.0534,-315.189 68.7222,-307.54 69.6835,-318.091 76.0534,-315.189"/>
<text text-anchor="middle" x="79.7262" y="-343.173" font-family="Times New Roman,serif" font-size="14.00">ε</text>
</g>
<!-- n5 -->
<g id="node3" class="node"><title>n5</title>
<ellipse fill="none" stroke="black" cx="117.5" cy="-289.49" rx="19.5" ry="19.5"/>
<text text-anchor="middle" x="117.5" y="-285.79" font-family="Times New Roman,serif" font-size="14.00">n5</text>
</g>
<!-- n0&#45;&gt;n5 -->
<g id="edge2" class="edge"><title>n0&#45;&gt;n5</title>
<path fill="none" stroke="black" d="M104.972,-359.954C107.089,-348.043 109.838,-332.583 112.221,-319.179"/>
<polygon fill="black" stroke="black" points="115.73,-319.437 114.035,-308.978 108.838,-318.211 115.73,-319.437"/>
<text text-anchor="middle" x="105.097" y="-343.366" font-family="Times New Roman,serif" font-size="14.00">a</text>
</g>
<!-- n2 -->
<g id="node4" class="node"><title>n2</title>
<ellipse fill="none" stroke="black" cx="19.498" cy="-199.49" rx="19.5" ry="19.5"/>
<text text-anchor="middle" x="19.498" y="-195.79" font-family="Times New Roman,serif" font-size="14.00">n2</text>
</g>
<!-- n1&#45;&gt;n2 -->
<g id="edge3" class="edge"><title>n1&#45;&gt;n2</title>
<path fill="none" stroke="black" d="M52.3977,-271.709C46.5955,-258.972 38.6705,-241.576 32.0525,-227.049"/>
<polygon fill="black" stroke="black" points="35.0526,-225.191 27.7218,-217.542 28.6824,-228.093 35.0526,-225.191"/>
<text text-anchor="middle" x="38.7251" y="-253.179" font-family="Times New Roman,serif" font-size="14.00">ε</text>
</g>
<!-- n3 -->
<g id="node5" class="node"><title>n3</title>
<ellipse fill="none" stroke="black" cx="76.498" cy="-199.49" rx="19.5" ry="19.5"/>
<text text-anchor="middle" x="76.498" y="-195.79" font-family="Times New Roman,serif" font-size="14.00">n3</text>
</g>
<!-- n1&#45;&gt;n3 -->
<g id="edge4" class="edge"><title>n1&#45;&gt;n3</title>
<path fill="none" stroke="black" d="M63.9698,-269.961C66.0874,-258.05 68.8362,-242.588 71.2193,-229.183"/>
<polygon fill="black" stroke="black" points="74.7286,-229.439 73.033,-218.981 67.8366,-228.214 74.7286,-229.439"/>
<text text-anchor="middle" x="64.0945" y="-253.372" font-family="Times New Roman,serif" font-size="14.00">ε</text>
</g>
<!-- n4 -->
<g id="node6" class="node"><title>n4</title>
<ellipse fill="none" stroke="black" cx="19.498" cy="-109.49" rx="19.5" ry="19.5"/>
<text text-anchor="middle" x="19.498" y="-105.79" font-family="Times New Roman,serif" font-size="14.00">n4</text>
</g>
<!-- n2&#45;&gt;n4 -->
<g id="edge5" class="edge"><title>n2&#45;&gt;n4</title>
<path fill="none" stroke="black" d="M19.498,-179.961C19.498,-168.131 19.498,-152.799 19.498,-139.458"/>
<polygon fill="black" stroke="black" points="22.9981,-139.291 19.498,-129.291 15.9981,-139.291 22.9981,-139.291"/>
<text text-anchor="middle" x="15.998" y="-163.51" font-family="Times New Roman,serif" font-size="14.00">ε</text>
</g>
<!-- n6 -->
<g id="node7" class="node"><title>n6</title>
<ellipse fill="none" stroke="black" cx="19.498" cy="-19.498" rx="19.5" ry="19.5"/>
<text text-anchor="middle" x="19.498" y="-15.798" font-family="Times New Roman,serif" font-size="14.00">n6</text>
</g>
<!-- n4&#45;&gt;n6 -->
<g id="edge6" class="edge"><title>n4&#45;&gt;n6</title>
<path fill="none" stroke="black" d="M19.498,-89.9631C19.498,-78.134 19.498,-62.8033 19.498,-49.4638"/>
<polygon fill="black" stroke="black" points="22.9981,-49.2975 19.498,-39.2976 15.9981,-49.2976 22.9981,-49.2975"/>
<text text-anchor="middle" x="15.498" y="-73.5134" font-family="Times New Roman,serif" font-size="14.00">b</text>
</g>
</g>
</svg>
